<svg xmlns="http://www.w3.org/2000/svg" version="1.1" xmlns:xlink="http://www.w3.org/1999/xlink" xmlns:svgjs="http://svgjs.dev/svgjs" width="100%" height="100%" viewBox="0 0 1000 600"><rect width="1000" height="600" x="0" y="0" fill="#ec4d37"/><g><circle r="166.66666666666666" cx="366.6958872477213" cy="388.91807914994" fill="#1d1b1b" transform="matrix(0.6249089564293865,0,0,0.6249089564293865,0,56.961633188120075)"/><path d="M369.04092973861464 462.2643743711192L348.545719862017 462.2643743711192L348.545719862017 364.66813686351117L352.829110285962 333.4373408610766L352.34112909842395 333.32890059717926L342.50017514974013 362.716212113359L301.99773658408276 449.5768634951301L295.24733015647325 449.5768634951301L259.2451625425556 372.4758358641198L246.3678812047462 333.32890059717926L245.77145975331084 333.4373408610766L250.94948235440893 374.31932035037465L250.94948235440893 462.2643743711192L231.4302348528873 462.2643743711192L231.4302348528873 336.36522798630483L228.69211818947943 315.87001810970713L251.54590380584432 313.91809335955503L294.3798080452945 405.65855661670656L299.74760110821296 431.03357836868463L305.11539417113136 405.65855661670656L346.97333603550544 315.87001810970713L369.04092973861464 313.91809335955503L369.04092973861464 462.2643743711192ZM504.6996998741897 383.69940317749473L504.6996998741897 443.0433375953152Q500.68741010998804 447.4351682831576 495.7262680366847 451.2847976515133Q490.73801589740697 455.13442701986895 484.80091144902747 457.92676381522546Q478.83669693467357 460.69199054460773 471.81518984732077 462.31859450306786Q464.79368275996785 463.91808839555364 456.6877730336415 463.91808839555364L456.6877730336415 463.91808839555364Q442.6176487929613 463.91808839555364 431.39408147958636 457.81832355132815Q420.1705141662115 451.71855870710266 412.3357050996285 441.28118330698345Q404.4737859670712 430.84380790686424 400.32594587299786 416.8821239300815Q396.17810577892453 402.9204399532986 396.17810577892453 387.115271490261L396.17810577892453 387.115271490261Q396.17810577892453 372.3673956002225 399.9192948833828 359.16479347072107Q403.6875940538155 345.9350812752453 411.4410729224754 335.93146693071543Q419.1945517911354 325.9278525861857 431.0145405559457 320.07207833572915Q442.834529320756 314.2163040852727 458.9379085095113 314.2163040852727L458.9379085095113 314.2163040852727Q470.16147582288625 314.2163040852727 480.1650901674161 317.76772272791067Q490.16870451194586 321.34625143652295 497.1902115992988 328.06954779815817L497.1902115992988 328.06954779815817L488.4065502236141 338.5069231982773Q483.71650881005405 335.3892656112288 476.64078159075245 333.0577999374359Q469.56505437145086 330.6992241976687 460.4831822700485 330.6992241976687L460.4831822700485 330.6992241976687Q448.5818633073152 330.6992241976687 440.28618311916847 335.1994951494084Q431.9905029310218 339.6726560351738 426.7311501320007 347.34480470591075Q421.4446872670053 355.0169533766477 419.05900146126373 365.2103381829979Q416.67331565552223 375.40372298934807 416.67331565552223 386.8170607645433L416.67331565552223 386.8170607645433Q416.67331565552223 393.5674671921529 417.7306082285213 400.64319441145443Q418.8150108674947 407.71892163075603 421.0109262114159 414.44221799239125Q423.20684155533706 421.16551435402647 426.67693000005204 427.1297288683803Q430.147018444767 433.09394338273415 434.86416992430134 437.56710426849946Q439.60843146981006 442.06737522023917 445.6539761820869 444.69705161974974Q451.6995208943638 447.3267280192603 459.2090091692547 447.3267280192603L459.2090091692547 447.3267280192603Q463.60083985709707 447.3267280192603 467.7215698851961 446.4049857761329Q471.81518984732077 445.48324353300546 475.31238835801 444.01929997039133Q478.83669693467357 442.55535640777725 481.6290337300302 440.73898198749674Q484.3942604594124 438.9497176331906 486.1564147477442 437.07912308096144L486.1564147477442 437.07912308096144L486.1564147477442 399.314801178712L455.9015811203858 397.36287642855984L455.9015811203858 383.69940317749473L504.6996998741897 383.69940317749473Z " fill="#ec4d37" transform="matrix(0.6249089564293865,0,0,0.6249089564293865,0,56.961633188120075)"/><path d="M757.044713918302 462.2643743711192L736.5495040417044 462.2643743711192L736.5495040417044 364.66813686351117L740.8328944656494 333.4373408610766L740.3449132781113 333.32890059717926L730.5039593294275 362.716212113359L690.0015207637703 449.5768634951301L683.2511143361606 449.5768634951301L647.2489467222431 372.4758358641198L634.3716653844336 333.32890059717926L633.7752439329983 333.4373408610766L638.9532665340964 374.31932035037465L638.9532665340964 462.2643743711192L619.4340190325747 462.2643743711192L619.4340190325747 336.36522798630483L616.6959023691668 315.87001810970713L639.5496879855318 313.91809335955503L682.383592224982 405.65855661670656L687.7513852879003 431.03357836868463L693.1191783508189 405.65855661670656L734.9771202151929 315.87001810970713L757.044713918302 313.91809335955503L757.044713918302 462.2643743711192ZM814.6264940477909 462.2643743711192L794.1312841711931 462.2643743711192L794.1312841711931 336.36522798630483L791.203397045965 315.87001810970713L814.6264940477909 313.91809335955503L814.6264940477909 462.2643743711192ZM858.1652600025737 462.2643743711192L840.1912862615892 462.2643743711192L881.4799167405023 335.3892656112288L884.8957850532686 315.87001810970713L906.0687465792246 313.91809335955503L954.6770948712083 462.2643743711192L935.1578473696868 462.2643743711192L920.7081822053658 418.34606749269557L872.3980446390999 418.34606749269557L858.1652600025737 462.2643743711192ZM900.0232018669478 354.90851311275037L896.4988932902843 329.5334913607723L893.0016947795949 354.90851311275037L877.1965263165573 403.70663186655435L915.9368105938827 403.70663186655435L900.0232018669478 354.90851311275037ZM1078.1363353183324 383.69940317749473L1078.1363353183324 443.0433375953152Q1074.1240455541308 447.4351682831576 1069.1629034808275 451.2847976515133Q1064.1746513415496 455.13442701986895 1058.23754689317 457.92676381522546Q1052.2733323788163 460.69199054460773 1045.2518252914633 462.31859450306786Q1038.2303182041105 463.91808839555364 1030.124408477784 463.91808839555364L1030.124408477784 463.91808839555364Q1016.054284237104 463.91808839555364 1004.8307169237291 457.81832355132815Q993.6071496103542 451.71855870710266 985.7723405437712 441.28118330698345Q977.910421411214 430.84380790686424 973.7625813171405 416.8821239300815Q969.6147412230672 402.9204399532986 969.6147412230672 387.115271490261L969.6147412230672 387.115271490261Q969.6147412230672 372.3673956002225 973.3559303275256 359.16479347072107Q977.1242294979581 345.9350812752453 984.8777083666182 335.93146693071543Q992.6311872352782 325.9278525861857 1004.4511760000885 320.07207833572915Q1016.2711647648987 314.2163040852727 1032.3745439536542 314.2163040852727L1032.3745439536542 314.2163040852727Q1043.5981112670288 314.2163040852727 1053.6017256115588 317.76772272791067Q1063.6053399560885 321.34625143652295 1070.6268470434416 328.06954779815817L1070.6268470434416 328.06954779815817L1061.8431856677566 338.5069231982773Q1057.1531442541968 335.3892656112288 1050.0774170348952 333.0577999374359Q1043.0016898155936 330.6992241976687 1033.9198177141911 330.6992241976687L1033.9198177141911 330.6992241976687Q1022.0184987514579 330.6992241976687 1013.7228185633112 335.1994951494084Q1005.4271383751645 339.6726560351738 1000.1677855761434 347.34480470591075Q994.881322711148 355.0169533766477 992.4956369054064 365.2103381829979Q990.1099510996648 375.40372298934807 990.1099510996648 386.8170607645433L990.1099510996648 386.8170607645433Q990.1099510996648 393.5674671921529 991.167243672664 400.64319441145443Q992.2516463116374 407.71892163075603 994.4475616555585 414.44221799239125Q996.6434769994798 421.16551435402647 1000.1135654441947 427.1297288683803Q1003.5836538889097 433.09394338273415 1008.300805368444 437.56710426849946Q1013.0450669139527 442.06737522023917 1019.0906116262297 444.69705161974974Q1025.1361563385065 447.3267280192603 1032.6456446133975 447.3267280192603L1032.6456446133975 447.3267280192603Q1037.0374753012397 447.3267280192603 1041.1582053293387 446.4049857761329Q1045.2518252914633 445.48324353300546 1048.7490238021528 444.01929997039133Q1052.2733323788163 442.55535640777725 1055.0656691741729 440.73898198749674Q1057.830895903555 438.9497176331906 1059.593050191887 437.07912308096144L1059.593050191887 437.07912308096144L1059.593050191887 399.314801178712L1029.3382165645285 397.36287642855984L1029.3382165645285 383.69940317749473L1078.1363353183324 383.69940317749473ZM1126.9344540721363 462.2643743711192L1106.4392441955388 462.2643743711192L1106.4392441955388 336.36522798630483L1103.5113570703106 315.87001810970713L1126.9344540721363 313.91809335955503L1126.9344540721363 462.2643743711192ZM1165.9729490751797 418.83404868023365L1165.9729490751797 403.70663186655435L1214.7710678289836 403.70663186655435L1214.7710678289836 418.83404868023365L1165.9729490751797 418.83404868023365ZM1351.4058003396349 383.69940317749473L1351.4058003396349 443.0433375953152Q1347.3935105754335 447.4351682831576 1342.4323685021297 451.2847976515133Q1337.4441163628521 455.13442701986895 1331.5070119144725 457.92676381522546Q1325.5427974001188 460.69199054460773 1318.5212903127658 462.31859450306786Q1311.499783225413 463.91808839555364 1303.3938734990866 463.91808839555364L1303.3938734990866 463.91808839555364Q1289.3237492584067 463.91808839555364 1278.1001819450316 457.81832355132815Q1266.8766146316566 451.71855870710266 1259.0418055650737 441.28118330698345Q1251.1798864325165 430.84380790686424 1247.0320463384428 416.8821239300815Q1242.8842062443696 402.9204399532986 1242.8842062443696 387.115271490261L1242.8842062443696 387.115271490261Q1242.8842062443696 372.3673956002225 1246.625395348828 359.16479347072107Q1250.3936945192606 345.9350812752453 1258.1471733879207 335.93146693071543Q1265.9006522565805 325.9278525861857 1277.7206410213907 320.07207833572915Q1289.540629786201 314.2163040852727 1305.6440089749565 314.2163040852727L1305.6440089749565 314.2163040852727Q1316.8675762883313 314.2163040852727 1326.8711906328613 317.76772272791067Q1336.874804977391 321.34625143652295 1343.896312064744 328.06954779815817L1343.896312064744 328.06954779815817L1335.1126506890591 338.5069231982773Q1330.4226092754993 335.3892656112288 1323.3468820561977 333.0577999374359Q1316.2711548368961 330.6992241976687 1307.1892827354936 330.6992241976687L1307.1892827354936 330.6992241976687Q1295.2879637727601 330.6992241976687 1286.9922835846137 335.1994951494084Q1278.6966033964668 339.6726560351738 1273.4372505974457 347.34480470591075Q1268.1507877324505 355.0169533766477 1265.765101926709 365.2103381829979Q1263.3794161209673 375.40372298934807 1263.3794161209673 386.8170607645433L1263.3794161209673 386.8170607645433Q1263.3794161209673 393.5674671921529 1264.4367086939665 400.64319441145443Q1265.5211113329399 407.71892163075603 1267.7170266768612 414.44221799239125Q1269.9129420207823 421.16551435402647 1273.383030465497 427.1297288683803Q1276.853118910212 433.09394338273415 1281.5702703897464 437.56710426849946Q1286.3145319352552 442.06737522023917 1292.360076647532 444.69705161974974Q1298.4056213598087 447.3267280192603 1305.9151096347 447.3267280192603L1305.9151096347 447.3267280192603Q1310.3069403225422 447.3267280192603 1314.4276703506412 446.4049857761329Q1318.5212903127658 445.48324353300546 1322.0184888234553 444.01929997039133Q1325.5427974001188 442.55535640777725 1328.3351341954753 440.73898198749674Q1331.1003609248573 438.9497176331906 1332.8625152131895 437.07912308096144L1332.8625152131895 437.07912308096144L1332.8625152131895 399.314801178712L1302.607681585831 397.36287642855984L1302.607681585831 383.69940317749473L1351.4058003396349 383.69940317749473ZM1400.2039190934388 462.2643743711192L1379.7087092168413 462.2643743711192L1379.7087092168413 336.36522798630483L1376.7808220916131 315.87001810970713L1400.2039190934388 313.91809335955503L1400.2039190934388 462.2643743711192Z " fill="#1d1b1b" transform="matrix(0.6249089564293865,0,0,0.6249089564293865,0,56.961633188120075)"/></g></svg>